<svg width="33" height="24" viewBox="0 0 33 24" fill="none" xmlns="http://www.w3.org/2000/svg">
<g opacity="0.8">
<path d="M8.25182 7.75269H14.8168L6.33703 23.4357H0L8.25182 7.75269Z" fill="white" fill-opacity="0.51"/>
<path d="M8.25182 7.75269H14.8168L6.33703 23.4357H0L8.25182 7.75269Z" fill="url(#custom-gradient)"/>
</g>
<g opacity="0.8">
<path d="M14.8167 7.74597L8.2517 7.74597L14.8167 23.429H21.5184L14.8167 7.74597Z" fill="white" fill-opacity="0.51"/>
<path d="M14.8167 7.74597L8.2517 7.74597L14.8167 23.429H21.5184L14.8167 7.74597Z" fill="url(#custom-gradient)"/>
</g>
<path d="M25.986 4.05101L24.208 3.04884L31.6392 0L32.7333 7.97258L30.9553 6.92319L21.5182 23.4268H14.8164L25.986 4.05101Z" fill="white" fill-opacity="0.51"/>
<path d="M25.986 4.05101L24.208 3.04884L31.6392 0L32.7333 7.97258L30.9553 6.92319L21.5182 23.4268H14.8164L25.986 4.05101Z" fill="url(#custom-gradient)"/>
<defs>
<linearGradient id="custom-gradient" x1="0%" y1="0%" x2="100%" y2="0%"><stop offset="0%" style="stop-color:#503eef;stop-opacity:1" /><stop offset="100%" style="stop-color:#9f2bf3;stop-opacity:1" /></linearGradient>
<linearGradient id="custom-gradient" x1="0%" y1="0%" x2="100%" y2="0%"><stop offset="0%" style="stop-color:#503eef;stop-opacity:1" /><stop offset="100%" style="stop-color:#9f2bf3;stop-opacity:1" /></linearGradient>
<linearGradient id="custom-gradient" x1="0%" y1="0%" x2="100%" y2="0%"><stop offset="0%" style="stop-color:#503eef;stop-opacity:1" /><stop offset="100%" style="stop-color:#9f2bf3;stop-opacity:1" /></linearGradient>
</defs>
</svg>
